<?xml version="1.0" encoding="UTF-8" standalone="no"?>
<!DOCTYPE svg PUBLIC "-//W3C//DTD SVG 1.1//EN" "http://www.w3.org/Graphics/SVG/1.1/DTD/svg11.dtd">
<!-- Created with Vectornator (http://vectornator.io/) -->
<svg height="100%" stroke-miterlimit="10" style="fill-rule:nonzero;clip-rule:evenodd;stroke-linecap:round;stroke-linejoin:round;" version="1.1" viewBox="0 0 512 512" width="100%" xml:space="preserve" xmlns="http://www.w3.org/2000/svg" xmlns:vectornator="http://vectornator.io" xmlns:xlink="http://www.w3.org/1999/xlink">
<defs/>
<clipPath id="ArtboardFrame">
<rect height="512" width="512" x="0" y="0"/>
</clipPath>
<g clip-path="url(#ArtboardFrame)" id="Layer-1" vectornator:layerName="Layer 1">
<path d="M47.5 56.5C38.5 59.5 30.6667 64 24 70C17.3333 76 12 83.3333 8 92C4 100.667 2 110.167 2 120.5C2 130.833 3.33333 139.333 6 146C8.66667 152.667 11.6667 158.167 15 162.5C18.3333 166.833 34.6667 183.833 64 213.5C78.6667 228.333 93.3333 243.167 108 258C92.3333 273.667 76.6667 289.333 61 305C29.6667 336.333 12.1667 355.667 8.5 363C4.83333 370.333 2.66667 378.833 2 388.5C1.33333 398.167 2.5 407.333 5.5 416C8.5 424.667 12.8333 432.167 18.5 438.5C24.1667 444.833 31 450 39 454C47 458 55.5 460.333 64.5 461C73.5 461.667 80.6667 461.333 86 460C91.3333 458.667 97.1667 456.167 103.5 452.5C109.833 448.833 137.333 422.667 186 374C234.667 325.333 261.167 297 265.5 289C269.833 281 272.333 272 273 262C273.667 252 273.167 244 271.5 238C269.833 232 267.333 226.333 264 221C260.667 215.667 234.667 188.667 186 140C137.333 91.3333 111 65.6667 107 63C103 60.3333 98.8333 58.1667 94.5 56.5C90.1667 54.8333 83.5 53.6667 74.5 53C65.5 52.3333 56.5 53.5 47.5 56.5ZM286.5 56.5C277.5 59.5 269.667 64 263 70C256.333 76 251 83.3333 247 92C243 100.667 241 110.167 241 120.5C241 130.833 242.333 139.333 245 146C247.667 152.667 250.5 158 253.5 162C256.5 166 272.833 183 302.5 213C317.333 228 332.167 243 347 258C331.333 273.667 315.667 289.333 300 305C268.667 336.333 251.167 355.667 247.5 363C243.833 370.333 241.667 379 241 389C240.333 399 241.5 408.167 244.5 416.5C247.5 424.833 252 432.333 258 439C264 445.667 270.833 450.833 278.5 454.5C286.167 458.167 294.5 460.333 303.5 461C312.5 461.667 319.667 461.333 325 460C330.333 458.667 336.167 456.167 342.5 452.5C348.833 448.833 376.333 422.667 425 374C473.667 325.333 499.333 299 502 295C504.667 291 506.833 286.833 508.5 282.5C510.167 278.167 511.333 271.167 512 261.5C512.667 251.833 512 243.667 510 237C508 230.333 505.5 224.667 502.5 220C499.5 215.333 473.667 188.667 425 140C376.333 91.3333 347.833 64.8333 339.5 60.5C331.167 56.1667 322.5 53.6667 313.5 53C304.5 52.3333 295.5 53.5 286.5 56.5ZM69.5 87C74.5 87 79.1667 88 83.5 90C87.8333 92 113.833 116.833 161.5 164.5C209.167 212.167 233.833 237.5 235.5 240.5C237.167 243.5 238.333 246.667 239 250C239.667 253.333 239.667 257.333 239 262C238.333 266.667 237.167 270.5 235.5 273.5C233.833 276.5 209.333 301.667 162 349C114.667 396.333 88.3333 421.167 83 423.5C77.6667 425.833 72.3333 426.833 67 426.5C61.6667 426.167 56.6667 424.667 52 422C47.3333 419.333 43.5 415.167 40.5 409.5C37.5 403.833 36.1667 397.833 36.5 391.5C36.8333 385.167 38.3333 379.833 41 375.5C43.6667 371.167 63.6667 350.167 101 312.5C119.667 293.667 138.333 274.833 157 256C137.667 236.667 118.333 217.333 99 198C60.3333 159.333 40 136.833 38 130.5C36 124.167 35.5 118.5 36.5 113.5C37.5 108.5 40 103.667 44 99C48 94.3333 52 91.1667 56 89.5C60 87.8333 64.5 87 69.5 87ZM308.5 87C313.5 87 318.167 88 322.5 90C326.833 92 352.833 116.833 400.5 164.5C448.167 212.167 473.167 239.333 475.5 246C477.833 252.667 478.833 257.5 478.5 260.5C478.167 263.5 477 267.167 475 271.5C473 275.833 448.333 301.667 401 349C353.667 396.333 327.333 421.167 322 423.5C316.667 425.833 311.333 426.833 306 426.5C300.667 426.167 295.5 424.5 290.5 421.5C285.5 418.5 281.667 414.5 279 409.5C276.333 404.5 274.833 400.333 274.5 397C274.167 393.667 274.5 389.833 275.5 385.5C276.5 381.167 278 377.5 280 374.5C282 371.5 301.833 351 339.5 313C358.333 294 377.167 275 396 256C377.167 237.333 358.333 218.667 339.5 200C301.833 162.667 282 142.5 280 139.5C278 136.5 276.5 132.333 275.5 127C274.5 121.667 274.667 116.5 276 111.5C277.333 106.5 279.833 102 283.5 98C287.167 94 291 91.1667 295 89.5C299 87.8333 303.5 87 308.5 87Z" fill="#000000" fill-rule="nonzero" opacity="1" stroke="none"/>
</g>
</svg>
