<?xml version="1.0" encoding="UTF-8" standalone="no"?>
<!DOCTYPE svg PUBLIC "-//W3C//DTD SVG 1.1//EN" "http://www.w3.org/Graphics/SVG/1.1/DTD/svg11.dtd">
<!-- Created with Vectornator (http://vectornator.io/) -->
<svg height="100%" stroke-miterlimit="10" style="fill-rule:nonzero;clip-rule:evenodd;stroke-linecap:round;stroke-linejoin:round;" version="1.1" viewBox="0 0 512 512" width="100%" xml:space="preserve" xmlns="http://www.w3.org/2000/svg" xmlns:vectornator="http://vectornator.io" xmlns:xlink="http://www.w3.org/1999/xlink">
<defs/>
<g id="Layer-2" vectornator:layerName="Layer 2"/>
<g id="Layer-1" vectornator:layerName="Layer 1">
<path d="M283.562 55.388C278.562 56.388 272.062 58.5546 264.062 61.888C256.062 65.2213 249.229 68.888 243.562 72.888C237.896 76.888 232.729 81.388 228.062 86.388C223.396 91.388 219.729 95.888 217.062 99.888C214.396 103.888 211.396 109.888 208.062 117.888C204.729 125.888 202.562 132.388 201.562 137.388C200.562 142.388 200.062 149.055 200.062 157.388C200.062 165.721 200.562 172.555 201.562 177.888C202.562 183.221 204.729 189.888 208.062 197.888C211.396 205.888 215.229 212.888 219.562 218.888C223.896 224.888 228.396 230.055 233.062 234.388C237.729 238.721 242.062 242.221 246.062 244.888C250.062 247.555 256.062 250.555 264.062 253.888C272.062 257.221 278.729 259.388 284.062 260.388C289.396 261.388 296.062 261.888 304.062 261.888C312.062 261.888 318.729 261.388 324.062 260.388C329.396 259.388 336.062 257.221 344.062 253.888C352.062 250.555 359.062 246.721 365.062 242.388C371.062 238.055 376.229 233.555 380.562 228.888C384.896 224.221 388.396 219.888 391.062 215.888C393.729 211.888 396.729 205.888 400.062 197.888C403.396 189.888 405.562 183.221 406.562 177.888C407.562 172.555 408.062 165.888 408.062 157.888C408.062 149.888 407.562 143.221 406.562 137.888C405.562 132.555 403.396 125.888 400.062 117.888C396.729 109.888 393.062 103.055 389.062 97.388C385.062 91.7213 380.562 86.5546 375.562 81.888C370.562 77.2213 366.062 73.5546 362.062 70.888C358.062 68.2213 352.062 65.2213 344.062 61.888C336.062 58.5546 329.396 56.388 324.062 55.388C318.729 54.388 311.896 53.888 303.562 53.888C295.229 53.888 288.562 54.388 283.562 55.388ZM308.062 70.388C314.729 70.7213 320.729 71.5546 326.062 72.888C331.396 74.2213 336.562 76.0546 341.562 78.388C346.562 80.7213 351.896 84.0546 357.562 88.388C363.229 92.7213 367.729 96.888 371.062 100.888C374.396 104.888 377.562 109.555 380.562 114.888C383.562 120.221 386.229 127.721 388.562 137.388C390.896 147.055 391.896 155.221 391.562 161.888C391.229 168.555 390.396 174.555 389.062 179.888C387.729 185.221 385.896 190.388 383.562 195.388C381.229 200.388 377.896 205.721 373.562 211.388C369.229 217.055 365.062 221.555 361.062 224.888C357.062 228.221 352.396 231.388 347.062 234.388C341.729 237.388 334.062 240.055 324.062 242.388C314.062 244.721 305.896 245.721 299.562 245.388C293.229 245.055 287.396 244.221 282.062 242.888C276.729 241.555 271.562 239.721 266.562 237.388C261.562 235.055 256.229 231.721 250.562 227.388C244.896 223.055 240.729 219.388 238.062 216.388C235.396 213.388 232.229 208.721 228.562 202.388C224.896 196.055 221.896 188.055 219.562 178.388C217.229 168.721 216.229 160.388 216.562 153.388C216.896 146.388 217.729 140.388 219.062 135.388C220.396 130.388 222.229 125.388 224.562 120.388C226.896 115.388 230.062 110.221 234.062 104.888C238.062 99.5546 241.729 95.388 245.062 92.388C248.396 89.388 253.229 86.0546 259.562 82.388C265.896 78.7213 273.896 75.7213 283.562 73.388C293.229 71.0546 301.396 70.0546 308.062 70.388ZM266.562 136.388C264.896 138.055 264.062 139.888 264.062 141.888C264.062 143.888 264.896 145.721 266.562 147.388C268.229 149.055 270.062 149.888 272.062 149.888C274.062 149.888 275.896 149.055 277.562 147.388C279.229 145.721 280.062 143.888 280.062 141.888C280.062 139.888 279.229 138.055 277.562 136.388C275.896 134.721 274.062 133.888 272.062 133.888C270.062 133.888 268.229 134.721 266.562 136.388ZM330.562 136.388C328.896 138.055 328.062 139.888 328.062 141.888C328.062 143.888 328.896 145.721 330.562 147.388C332.229 149.055 334.062 149.888 336.062 149.888C338.062 149.888 339.896 149.055 341.562 147.388C343.229 145.721 344.062 143.888 344.062 141.888C344.062 139.888 343.229 138.055 341.562 136.388C339.896 134.721 338.062 133.888 336.062 133.888C334.062 133.888 332.229 134.721 330.562 136.388ZM281.062 177.888C273.729 180.555 267.896 183.721 263.562 187.388C259.229 191.055 256.896 194.221 256.562 196.888C256.229 199.555 256.896 201.721 258.562 203.388C260.229 205.055 262.396 205.721 265.062 205.388C267.729 205.055 269.729 204.055 271.062 202.388C272.396 200.721 275.062 198.721 279.062 196.388C283.062 194.055 287.229 192.388 291.562 191.388C295.896 190.388 302.229 190.388 310.562 191.388C318.896 192.388 326.062 195.055 332.062 199.388C338.062 203.721 342.062 205.888 344.062 205.888C346.062 205.888 347.896 205.055 349.562 203.388C351.229 201.721 351.896 199.555 351.562 196.888C351.229 194.221 349.896 191.721 347.562 189.388C345.229 187.055 341.729 184.555 337.062 181.888C332.396 179.221 327.729 177.221 323.062 175.888C318.396 174.555 312.062 173.888 304.062 173.888C296.062 173.888 288.396 175.221 281.062 177.888ZM429.062 240.888C424.396 242.888 406.062 260.055 374.062 292.388C342.062 324.721 321.562 340.888 312.562 340.888C308.062 340.888 303.562 340.888 299.062 340.888C300.062 338.721 301.062 336.555 302.062 334.388C304.062 330.055 304.896 324.888 304.562 318.888C304.229 312.888 302.562 307.388 299.562 302.388C296.562 297.388 293.062 293.555 289.062 290.888C285.062 288.221 281.896 286.555 279.562 285.888C277.229 285.221 258.896 284.888 224.562 284.888C190.229 284.888 156.562 301.221 123.562 333.888C90.5622 366.555 73.7289 384.555 73.0622 387.888C72.3956 391.221 73.0622 393.721 75.0622 395.388C77.0622 397.055 79.3956 397.555 82.0622 396.888C84.7289 396.221 101.562 380.055 132.562 348.388C163.562 316.721 194.562 300.888 225.562 300.888C256.562 300.888 273.396 301.388 276.062 302.388C278.729 303.388 281.396 305.721 284.062 309.388C286.729 313.055 288.062 317.055 288.062 321.388C288.062 325.721 286.062 329.888 282.062 333.888C278.062 337.888 263.062 340.055 237.062 340.388C211.062 340.721 197.062 341.888 195.062 343.888C193.062 345.888 192.062 347.721 192.062 349.388C192.062 351.055 192.729 352.721 194.062 354.388C195.396 356.055 218.729 357.055 264.062 357.388C309.396 357.721 348.729 341.055 382.062 307.388C415.396 273.721 433.729 256.388 437.062 255.388C440.396 254.388 443.229 254.221 445.562 254.888C447.896 255.555 450.062 257.055 452.062 259.388C454.062 261.721 455.229 264.221 455.562 266.888C455.896 269.555 455.562 272.055 454.562 274.388C453.562 276.721 431.896 299.055 389.562 341.388C347.229 383.721 303.229 404.888 257.562 404.888C211.896 404.888 181.729 412.221 167.062 426.888C152.396 441.555 145.062 450.555 145.062 453.888C145.062 457.221 145.729 459.388 147.062 460.388C148.396 461.388 150.229 461.888 152.562 461.888C154.896 461.888 162.562 455.221 175.562 441.888C188.562 428.555 218.062 421.888 264.062 421.888C310.062 421.888 355.729 398.888 401.062 352.888C446.396 306.888 469.562 282.555 470.562 279.888C471.562 277.221 472.062 273.555 472.062 268.888C472.062 264.221 471.062 259.721 469.062 255.388C467.062 251.055 464.062 247.388 460.062 244.388C456.062 241.388 451.062 239.555 445.062 238.888C439.062 238.221 433.729 238.888 429.062 240.888Z" fill="#ededed" fill-rule="nonzero" opacity="1" stroke="none"/>
</g>
</svg>
